<svg xmlns="http://www.w3.org/2000/svg" xmlns:xlink="http://www.w3.org/1999/xlink" version="1.1" x="0px" y="0px" viewBox="0 0 100 125" style="enable-background:new 0 0 100 100;" xml:space="preserve">
    <g>
        <g>
            <g>
                <path d="M53.4,70.5c-0.3,0-0.6-0.1-0.8-0.2L34.3,58.8h-6.2c-2.5,0-4.5-2-4.5-4.5v-9.7c0-2.5,2-4.5,4.5-4.5h6.2l18.3-11.5     c0.5-0.3,1-0.3,1.5,0c0.5,0.3,0.8,0.8,0.8,1.3V69c0,0.5-0.3,1-0.8,1.3C53.9,70.4,53.6,70.5,53.4,70.5z M28.1,43.1     c-0.8,0-1.5,0.7-1.5,1.5v9.7c0,0.8,0.7,1.5,1.5,1.5h6.6c0.3,0,0.6,0.1,0.8,0.2l16.3,10.2V32.6L35.5,42.9     c-0.2,0.2-0.5,0.2-0.8,0.2H28.1z" />
            </g>
        </g>
        <g>
            <g>
                <path d="M58.9,64c-0.4,0-0.7-0.1-1-0.4c-0.6-0.6-0.6-1.5-0.1-2.1c2.9-3,4.5-7,4.5-11.2c0-4.5-1.8-8.7-5.1-11.8     c-0.6-0.6-0.6-1.5-0.1-2.1c0.6-0.6,1.5-0.6,2.1-0.1c3.8,3.6,6.1,8.7,6.1,14c0,4.9-1.9,9.6-5.3,13.2C59.6,63.9,59.3,64,58.9,64z" />
            </g>
        </g>
        <g>
            <g>
                <path d="M62.8,68c-0.4,0-0.7-0.1-1-0.4c-0.6-0.6-0.6-1.5-0.1-2.1c3.9-4.1,6-9.4,6-15c0-6.1-2.4-11.7-6.8-15.8     c-0.6-0.6-0.6-1.5-0.1-2.1c0.6-0.6,1.5-0.6,2.1-0.1c5,4.7,7.8,11.2,7.8,18c0,6.4-2.4,12.4-6.8,17C63.6,67.8,63.2,68,62.8,68z" />
            </g>
        </g>
        <g>
            <g>
                <path d="M66.7,72.5c-0.4,0-0.7-0.1-1-0.4c-0.6-0.6-0.6-1.5-0.1-2.1c5-5.2,7.7-12.1,7.7-19.4     c0-7.8-3.1-15.1-8.9-20.5c-0.6-0.6-0.6-1.5-0.1-2.1c0.6-0.6,1.5-0.6,2.1-0.1c6.2,5.9,9.8,14.1,9.8,22.7c0,8-3,15.6-8.6,21.4     C67.5,72.3,67.1,72.5,66.7,72.5z" />
            </g>
        </g>
    </g>
</svg>